<svg width="1200" height="800" viewBox="0 0 1200 800" fill="none" xmlns="http://www.w3.org/2000/svg">
  <defs>
    <linearGradient id="bg" x1="110" y1="70" x2="1080" y2="750" gradientUnits="userSpaceOnUse">
      <stop stop-color="#FFF7ED"/>
      <stop offset="0.5" stop-color="#F8FAFC"/>
      <stop offset="1" stop-color="#EEF2FF"/>
    </linearGradient>
  </defs>
  <rect width="1200" height="800" rx="48" fill="url(#bg)"/>
  <circle cx="974" cy="164" r="132" fill="#FDBA74" fill-opacity="0.16"/>
  <circle cx="208" cy="164" r="98" fill="#C4B5FD" fill-opacity="0.18"/>
  <rect x="146" y="134" width="908" height="532" rx="34" fill="#FFFFFF" fill-opacity="0.9" stroke="#E5E7EB"/>
  <rect x="188" y="186" width="258" height="18" rx="9" fill="#F97316"/>
  <rect x="188" y="220" width="178" height="12" rx="6" fill="#CBD5E1"/>
  <rect x="188" y="286" width="318" height="320" rx="28" fill="#FFF7ED" stroke="#FED7AA"/>
  <rect x="570" y="208" width="380" height="300" rx="30" fill="#F8FAFC" stroke="#E5E7EB"/>
  <path d="M626 436C680 384 738 362 806 368C850 372 890 390 930 430" stroke="#F97316" stroke-width="14" stroke-linecap="round"/>
  <path d="M626 400C682 336 744 304 816 306C866 308 910 326 948 362" stroke="#7C3AED" stroke-width="14" stroke-linecap="round"/>
  <circle cx="816" cy="306" r="18" fill="#F97316"/>
  <circle cx="816" cy="368" r="18" fill="#7C3AED"/>
  <circle cx="816" cy="430" r="18" fill="#0EA5E9"/>
  <rect x="224" y="344" width="172" height="16" rx="8" fill="#F97316" fill-opacity="0.7"/>
  <rect x="224" y="376" width="132" height="12" rx="6" fill="#CBD5E1"/>
  <rect x="224" y="442" width="142" height="16" rx="8" fill="#7C3AED" fill-opacity="0.7"/>
  <rect x="224" y="474" width="178" height="12" rx="6" fill="#CBD5E1"/>
  <rect x="224" y="538" width="110" height="16" rx="8" fill="#0EA5E9" fill-opacity="0.7"/>
  <rect x="224" y="570" width="150" height="12" rx="6" fill="#CBD5E1"/>
</svg>
