<svg width="1200" height="900" viewBox="0 0 1200 900" fill="none" xmlns="http://www.w3.org/2000/svg">
  <defs>
    <linearGradient id="bg" x1="120" y1="90" x2="1080" y2="820" gradientUnits="userSpaceOnUse">
      <stop stop-color="#F8FAFC"/>
      <stop offset="0.52" stop-color="#ECFCCB"/>
      <stop offset="1" stop-color="#DCFCE7"/>
    </linearGradient>
    <linearGradient id="accent" x1="250" y1="260" x2="930" y2="700" gradientUnits="userSpaceOnUse">
      <stop stop-color="#16A34A"/>
      <stop offset="1" stop-color="#0EA5E9"/>
    </linearGradient>
  </defs>
  <rect width="1200" height="900" rx="48" fill="url(#bg)"/>
  <circle cx="920" cy="180" r="128" fill="#86EFAC" fill-opacity="0.24"/>
  <circle cx="250" cy="190" r="90" fill="#BAE6FD" fill-opacity="0.18"/>
  <rect x="168" y="150" width="864" height="600" rx="36" fill="#FFFFFF" fill-opacity="0.9" stroke="#DCFCE7"/>
  <path d="M332 460H468" stroke="#A7F3D0" stroke-width="10" stroke-linecap="round"/>
  <path d="M470 460C520 460 544 398 598 398C660 398 664 460 722 460C780 460 800 354 864 354" stroke="url(#accent)" stroke-width="12" stroke-linecap="round"/>
  <path d="M470 460C522 460 538 534 600 534C660 534 664 460 722 460C780 460 802 566 866 566" stroke="#16A34A" stroke-width="12" stroke-linecap="round"/>
  <circle cx="332" cy="460" r="34" fill="#FFFFFF" stroke="#94A3B8" stroke-width="6"/>
  <circle cx="598" cy="398" r="36" fill="#FFFFFF" stroke="#16A34A" stroke-width="6"/>
  <circle cx="722" cy="460" r="40" fill="#FFFFFF" stroke="#0EA5E9" stroke-width="6"/>
  <circle cx="864" cy="354" r="36" fill="#FFFFFF" stroke="#7C3AED" stroke-width="6"/>
  <circle cx="600" cy="534" r="38" fill="#FFFFFF" stroke="#16A34A" stroke-width="6"/>
  <circle cx="866" cy="566" r="34" fill="#FFFFFF" stroke="#0EA5E9" stroke-width="6"/>
  <path d="M320 430L344 460L320 490" stroke="#94A3B8" stroke-width="8" stroke-linecap="round" stroke-linejoin="round"/>
  <path d="M582 374L598 398L582 422" stroke="#16A34A" stroke-width="8" stroke-linecap="round" stroke-linejoin="round"/>
  <path d="M706 436L722 460L706 484" stroke="#0EA5E9" stroke-width="8" stroke-linecap="round" stroke-linejoin="round"/>
  <path d="M848 330L864 354L848 378" stroke="#7C3AED" stroke-width="8" stroke-linecap="round" stroke-linejoin="round"/>
  <path d="M582 510L600 534L582 558" stroke="#16A34A" stroke-width="8" stroke-linecap="round" stroke-linejoin="round"/>
  <path d="M848 542L866 566L848 590" stroke="#0EA5E9" stroke-width="8" stroke-linecap="round" stroke-linejoin="round"/>
  <rect x="486" y="232" width="240" height="108" rx="30" fill="#F8FAFC" stroke="#E5E7EB"/>
  <rect x="522" y="262" width="166" height="18" rx="9" fill="#CBD5E1"/>
  <rect x="522" y="292" width="126" height="12" rx="6" fill="#CBD5E1"/>
  <circle cx="804" cy="252" r="56" fill="url(#accent)" fill-opacity="0.18"/>
  <path d="M804 226L804 278" stroke="#16A34A" stroke-width="10" stroke-linecap="round"/>
  <path d="M778 252H830" stroke="#16A34A" stroke-width="10" stroke-linecap="round"/>
  <rect x="240" y="616" width="720" height="86" rx="24" fill="#0F172A" fill-opacity="0.9"/>
  <rect x="272" y="644" width="174" height="14" rx="7" fill="#D1FAE5"/>
  <rect x="272" y="668" width="130" height="12" rx="6" fill="#94A3B8"/>
  <rect x="760" y="638" width="166" height="22" rx="11" fill="#FFFFFF" fill-opacity="0.92"/>
  <rect x="786" y="644" width="108" height="10" rx="5" fill="#16A34A" fill-opacity="0.9"/>
</svg>
